<mxfile host="65bd71144e">
    <diagram id="mYBj5oEdEBezCbkLyzXg" name="ページ1">
        <mxGraphModel dx="1204" dy="815" grid="1" gridSize="10" guides="1" tooltips="1" connect="1" arrows="1" fold="1" page="1" pageScale="1" pageWidth="827" pageHeight="1169" math="0" shadow="0">
            <root>
                <mxCell id="0"/>
                <mxCell id="1" parent="0"/>
                <mxCell id="97" value="会員" style="shape=table;startSize=30;container=1;collapsible=0;childLayout=tableLayout;fontStyle=1;align=center;" vertex="1" parent="1">
                    <mxGeometry x="70" y="70" width="170" height="200" as="geometry"/>
                </mxCell>
                <mxCell id="98" value="" style="shape=tableRow;horizontal=0;startSize=0;swimlaneHead=0;swimlaneBody=0;top=0;left=0;bottom=0;right=0;collapsible=0;dropTarget=0;fillColor=none;points=[[0,0.5],[1,0.5]];portConstraint=eastwest;" vertex="1" parent="97">
                    <mxGeometry y="30" width="170" height="28" as="geometry"/>
                </mxCell>
                <mxCell id="110" value="PK" style="shape=partialRectangle;html=1;whiteSpace=wrap;connectable=0;fillColor=none;top=0;left=0;bottom=0;right=0;overflow=hidden;" vertex="1" parent="98">
                    <mxGeometry width="34" height="28" as="geometry">
                        <mxRectangle width="34" height="28" as="alternateBounds"/>
                    </mxGeometry>
                </mxCell>
                <mxCell id="99" value="ID" style="shape=partialRectangle;html=1;whiteSpace=wrap;connectable=0;fillColor=none;top=0;left=0;bottom=0;right=0;overflow=hidden;" vertex="1" parent="98">
                    <mxGeometry x="34" width="136" height="28" as="geometry">
                        <mxRectangle width="136" height="28" as="alternateBounds"/>
                    </mxGeometry>
                </mxCell>
                <mxCell id="102" value="" style="shape=tableRow;horizontal=0;startSize=0;swimlaneHead=0;swimlaneBody=0;top=0;left=0;bottom=0;right=0;collapsible=0;dropTarget=0;fillColor=none;points=[[0,0.5],[1,0.5]];portConstraint=eastwest;" vertex="1" parent="97">
                    <mxGeometry y="58" width="170" height="29" as="geometry"/>
                </mxCell>
                <mxCell id="111" style="shape=partialRectangle;html=1;whiteSpace=wrap;connectable=0;fillColor=none;top=0;left=0;bottom=0;right=0;overflow=hidden;" vertex="1" parent="102">
                    <mxGeometry width="34" height="29" as="geometry">
                        <mxRectangle width="34" height="29" as="alternateBounds"/>
                    </mxGeometry>
                </mxCell>
                <mxCell id="103" value="名前" style="shape=partialRectangle;html=1;whiteSpace=wrap;connectable=0;fillColor=none;top=0;left=0;bottom=0;right=0;overflow=hidden;" vertex="1" parent="102">
                    <mxGeometry x="34" width="136" height="29" as="geometry">
                        <mxRectangle width="136" height="29" as="alternateBounds"/>
                    </mxGeometry>
                </mxCell>
                <mxCell id="116" style="shape=tableRow;horizontal=0;startSize=0;swimlaneHead=0;swimlaneBody=0;top=0;left=0;bottom=0;right=0;collapsible=0;dropTarget=0;fillColor=none;points=[[0,0.5],[1,0.5]];portConstraint=eastwest;" vertex="1" parent="97">
                    <mxGeometry y="87" width="170" height="28" as="geometry"/>
                </mxCell>
                <mxCell id="117" style="shape=partialRectangle;html=1;whiteSpace=wrap;connectable=0;fillColor=none;top=0;left=0;bottom=0;right=0;overflow=hidden;" vertex="1" parent="116">
                    <mxGeometry width="34" height="28" as="geometry">
                        <mxRectangle width="34" height="28" as="alternateBounds"/>
                    </mxGeometry>
                </mxCell>
                <mxCell id="118" value="メールアドレス" style="shape=partialRectangle;html=1;whiteSpace=wrap;connectable=0;fillColor=none;top=0;left=0;bottom=0;right=0;overflow=hidden;" vertex="1" parent="116">
                    <mxGeometry x="34" width="136" height="28" as="geometry">
                        <mxRectangle width="136" height="28" as="alternateBounds"/>
                    </mxGeometry>
                </mxCell>
                <mxCell id="119" style="shape=tableRow;horizontal=0;startSize=0;swimlaneHead=0;swimlaneBody=0;top=0;left=0;bottom=0;right=0;collapsible=0;dropTarget=0;fillColor=none;points=[[0,0.5],[1,0.5]];portConstraint=eastwest;" vertex="1" parent="97">
                    <mxGeometry y="115" width="170" height="28" as="geometry"/>
                </mxCell>
                <mxCell id="120" style="shape=partialRectangle;html=1;whiteSpace=wrap;connectable=0;fillColor=none;top=0;left=0;bottom=0;right=0;overflow=hidden;" vertex="1" parent="119">
                    <mxGeometry width="34" height="28" as="geometry">
                        <mxRectangle width="34" height="28" as="alternateBounds"/>
                    </mxGeometry>
                </mxCell>
                <mxCell id="121" value="パスワード" style="shape=partialRectangle;html=1;whiteSpace=wrap;connectable=0;fillColor=none;top=0;left=0;bottom=0;right=0;overflow=hidden;" vertex="1" parent="119">
                    <mxGeometry x="34" width="136" height="28" as="geometry">
                        <mxRectangle width="136" height="28" as="alternateBounds"/>
                    </mxGeometry>
                </mxCell>
                <mxCell id="131" style="shape=tableRow;horizontal=0;startSize=0;swimlaneHead=0;swimlaneBody=0;top=0;left=0;bottom=0;right=0;collapsible=0;dropTarget=0;fillColor=none;points=[[0,0.5],[1,0.5]];portConstraint=eastwest;" vertex="1" parent="97">
                    <mxGeometry y="143" width="170" height="29" as="geometry"/>
                </mxCell>
                <mxCell id="132" style="shape=partialRectangle;html=1;whiteSpace=wrap;connectable=0;fillColor=none;top=0;left=0;bottom=0;right=0;overflow=hidden;" vertex="1" parent="131">
                    <mxGeometry width="34" height="29" as="geometry">
                        <mxRectangle width="34" height="29" as="alternateBounds"/>
                    </mxGeometry>
                </mxCell>
                <mxCell id="133" value="JTIトークン" style="shape=partialRectangle;html=1;whiteSpace=wrap;connectable=0;fillColor=none;top=0;left=0;bottom=0;right=0;overflow=hidden;" vertex="1" parent="131">
                    <mxGeometry x="34" width="136" height="29" as="geometry">
                        <mxRectangle width="136" height="29" as="alternateBounds"/>
                    </mxGeometry>
                </mxCell>
                <mxCell id="134" style="shape=tableRow;horizontal=0;startSize=0;swimlaneHead=0;swimlaneBody=0;top=0;left=0;bottom=0;right=0;collapsible=0;dropTarget=0;fillColor=none;points=[[0,0.5],[1,0.5]];portConstraint=eastwest;" vertex="1" parent="97">
                    <mxGeometry y="172" width="170" height="28" as="geometry"/>
                </mxCell>
                <mxCell id="135" style="shape=partialRectangle;html=1;whiteSpace=wrap;connectable=0;fillColor=none;top=0;left=0;bottom=0;right=0;overflow=hidden;" vertex="1" parent="134">
                    <mxGeometry width="34" height="28" as="geometry">
                        <mxRectangle width="34" height="28" as="alternateBounds"/>
                    </mxGeometry>
                </mxCell>
                <mxCell id="136" value="メール認証" style="shape=partialRectangle;html=1;whiteSpace=wrap;connectable=0;fillColor=none;top=0;left=0;bottom=0;right=0;overflow=hidden;" vertex="1" parent="134">
                    <mxGeometry x="34" width="136" height="28" as="geometry">
                        <mxRectangle width="136" height="28" as="alternateBounds"/>
                    </mxGeometry>
                </mxCell>
                <mxCell id="137" value="グループ" style="shape=table;startSize=30;container=1;collapsible=0;childLayout=tableLayout;fontStyle=1;align=center;" vertex="1" parent="1">
                    <mxGeometry x="70" y="310" width="170" height="117" as="geometry"/>
                </mxCell>
                <mxCell id="138" value="" style="shape=tableRow;horizontal=0;startSize=0;swimlaneHead=0;swimlaneBody=0;top=0;left=0;bottom=0;right=0;collapsible=0;dropTarget=0;fillColor=none;points=[[0,0.5],[1,0.5]];portConstraint=eastwest;" vertex="1" parent="137">
                    <mxGeometry y="30" width="170" height="30" as="geometry"/>
                </mxCell>
                <mxCell id="139" value="PK" style="shape=partialRectangle;html=1;whiteSpace=wrap;connectable=0;fillColor=none;top=0;left=0;bottom=0;right=0;overflow=hidden;" vertex="1" parent="138">
                    <mxGeometry width="34" height="30" as="geometry">
                        <mxRectangle width="34" height="30" as="alternateBounds"/>
                    </mxGeometry>
                </mxCell>
                <mxCell id="140" value="ID" style="shape=partialRectangle;html=1;whiteSpace=wrap;connectable=0;fillColor=none;top=0;left=0;bottom=0;right=0;overflow=hidden;" vertex="1" parent="138">
                    <mxGeometry x="34" width="136" height="30" as="geometry">
                        <mxRectangle width="136" height="30" as="alternateBounds"/>
                    </mxGeometry>
                </mxCell>
                <mxCell id="141" value="" style="shape=tableRow;horizontal=0;startSize=0;swimlaneHead=0;swimlaneBody=0;top=0;left=0;bottom=0;right=0;collapsible=0;dropTarget=0;fillColor=none;points=[[0,0.5],[1,0.5]];portConstraint=eastwest;" vertex="1" parent="137">
                    <mxGeometry y="60" width="170" height="29" as="geometry"/>
                </mxCell>
                <mxCell id="142" value="" style="shape=partialRectangle;html=1;whiteSpace=wrap;connectable=0;fillColor=none;top=0;left=0;bottom=0;right=0;overflow=hidden;" vertex="1" parent="141">
                    <mxGeometry width="34" height="29" as="geometry">
                        <mxRectangle width="34" height="29" as="alternateBounds"/>
                    </mxGeometry>
                </mxCell>
                <mxCell id="143" value="名称(名前、題名)" style="shape=partialRectangle;html=1;whiteSpace=wrap;connectable=0;fillColor=none;top=0;left=0;bottom=0;right=0;overflow=hidden;" vertex="1" parent="141">
                    <mxGeometry x="34" width="136" height="29" as="geometry">
                        <mxRectangle width="136" height="29" as="alternateBounds"/>
                    </mxGeometry>
                </mxCell>
                <mxCell id="144" style="shape=tableRow;horizontal=0;startSize=0;swimlaneHead=0;swimlaneBody=0;top=0;left=0;bottom=0;right=0;collapsible=0;dropTarget=0;fillColor=none;points=[[0,0.5],[1,0.5]];portConstraint=eastwest;" vertex="1" parent="137">
                    <mxGeometry y="89" width="170" height="28" as="geometry"/>
                </mxCell>
                <mxCell id="145" value="FK" style="shape=partialRectangle;html=1;whiteSpace=wrap;connectable=0;fillColor=none;top=0;left=0;bottom=0;right=0;overflow=hidden;" vertex="1" parent="144">
                    <mxGeometry width="34" height="28" as="geometry">
                        <mxRectangle width="34" height="28" as="alternateBounds"/>
                    </mxGeometry>
                </mxCell>
                <mxCell id="146" value="オーナー" style="shape=partialRectangle;html=1;whiteSpace=wrap;connectable=0;fillColor=none;top=0;left=0;bottom=0;right=0;overflow=hidden;" vertex="1" parent="144">
                    <mxGeometry x="34" width="136" height="28" as="geometry">
                        <mxRectangle width="136" height="28" as="alternateBounds"/>
                    </mxGeometry>
                </mxCell>
                <mxCell id="175" value="友達" style="shape=table;startSize=30;container=1;collapsible=0;childLayout=tableLayout;fontStyle=1;align=center;" vertex="1" parent="1">
                    <mxGeometry x="329" y="68" width="170" height="145" as="geometry"/>
                </mxCell>
                <mxCell id="176" value="" style="shape=tableRow;horizontal=0;startSize=0;swimlaneHead=0;swimlaneBody=0;top=0;left=0;bottom=0;right=0;collapsible=0;dropTarget=0;fillColor=none;points=[[0,0.5],[1,0.5]];portConstraint=eastwest;" vertex="1" parent="175">
                    <mxGeometry y="30" width="170" height="30" as="geometry"/>
                </mxCell>
                <mxCell id="177" value="PK" style="shape=partialRectangle;html=1;whiteSpace=wrap;connectable=0;fillColor=none;top=0;left=0;bottom=0;right=0;overflow=hidden;" vertex="1" parent="176">
                    <mxGeometry width="34" height="30" as="geometry">
                        <mxRectangle width="34" height="30" as="alternateBounds"/>
                    </mxGeometry>
                </mxCell>
                <mxCell id="178" value="ID" style="shape=partialRectangle;html=1;whiteSpace=wrap;connectable=0;fillColor=none;top=0;left=0;bottom=0;right=0;overflow=hidden;" vertex="1" parent="176">
                    <mxGeometry x="34" width="136" height="30" as="geometry">
                        <mxRectangle width="136" height="30" as="alternateBounds"/>
                    </mxGeometry>
                </mxCell>
                <mxCell id="179" value="" style="shape=tableRow;horizontal=0;startSize=0;swimlaneHead=0;swimlaneBody=0;top=0;left=0;bottom=0;right=0;collapsible=0;dropTarget=0;fillColor=none;points=[[0,0.5],[1,0.5]];portConstraint=eastwest;" vertex="1" parent="175">
                    <mxGeometry y="60" width="170" height="29" as="geometry"/>
                </mxCell>
                <mxCell id="180" value="FK" style="shape=partialRectangle;html=1;whiteSpace=wrap;connectable=0;fillColor=none;top=0;left=0;bottom=0;right=0;overflow=hidden;" vertex="1" parent="179">
                    <mxGeometry width="34" height="29" as="geometry">
                        <mxRectangle width="34" height="29" as="alternateBounds"/>
                    </mxGeometry>
                </mxCell>
                <mxCell id="181" value="会員_id" style="shape=partialRectangle;html=1;whiteSpace=wrap;connectable=0;fillColor=none;top=0;left=0;bottom=0;right=0;overflow=hidden;" vertex="1" parent="179">
                    <mxGeometry x="34" width="136" height="29" as="geometry">
                        <mxRectangle width="136" height="29" as="alternateBounds"/>
                    </mxGeometry>
                </mxCell>
                <mxCell id="182" style="shape=tableRow;horizontal=0;startSize=0;swimlaneHead=0;swimlaneBody=0;top=0;left=0;bottom=0;right=0;collapsible=0;dropTarget=0;fillColor=none;points=[[0,0.5],[1,0.5]];portConstraint=eastwest;" vertex="1" parent="175">
                    <mxGeometry y="89" width="170" height="28" as="geometry"/>
                </mxCell>
                <mxCell id="183" value="FK" style="shape=partialRectangle;html=1;whiteSpace=wrap;connectable=0;fillColor=none;top=0;left=0;bottom=0;right=0;overflow=hidden;" vertex="1" parent="182">
                    <mxGeometry width="34" height="28" as="geometry">
                        <mxRectangle width="34" height="28" as="alternateBounds"/>
                    </mxGeometry>
                </mxCell>
                <mxCell id="184" value="友達_id" style="shape=partialRectangle;html=1;whiteSpace=wrap;connectable=0;fillColor=none;top=0;left=0;bottom=0;right=0;overflow=hidden;" vertex="1" parent="182">
                    <mxGeometry x="34" width="136" height="28" as="geometry">
                        <mxRectangle width="136" height="28" as="alternateBounds"/>
                    </mxGeometry>
                </mxCell>
                <mxCell id="185" style="shape=tableRow;horizontal=0;startSize=0;swimlaneHead=0;swimlaneBody=0;top=0;left=0;bottom=0;right=0;collapsible=0;dropTarget=0;fillColor=none;points=[[0,0.5],[1,0.5]];portConstraint=eastwest;" vertex="1" parent="175">
                    <mxGeometry y="117" width="170" height="28" as="geometry"/>
                </mxCell>
                <mxCell id="186" style="shape=partialRectangle;html=1;whiteSpace=wrap;connectable=0;fillColor=none;top=0;left=0;bottom=0;right=0;overflow=hidden;" vertex="1" parent="185">
                    <mxGeometry width="34" height="28" as="geometry">
                        <mxRectangle width="34" height="28" as="alternateBounds"/>
                    </mxGeometry>
                </mxCell>
                <mxCell id="187" value="友達承認" style="shape=partialRectangle;html=1;whiteSpace=wrap;connectable=0;fillColor=none;top=0;left=0;bottom=0;right=0;overflow=hidden;" vertex="1" parent="185">
                    <mxGeometry x="34" width="136" height="28" as="geometry">
                        <mxRectangle width="136" height="28" as="alternateBounds"/>
                    </mxGeometry>
                </mxCell>
                <mxCell id="197" value="グループメンバー" style="shape=table;startSize=30;container=1;collapsible=0;childLayout=tableLayout;fontStyle=1;align=center;" vertex="1" parent="1">
                    <mxGeometry x="70" y="468" width="170" height="117" as="geometry"/>
                </mxCell>
                <mxCell id="198" value="" style="shape=tableRow;horizontal=0;startSize=0;swimlaneHead=0;swimlaneBody=0;top=0;left=0;bottom=0;right=0;collapsible=0;dropTarget=0;fillColor=none;points=[[0,0.5],[1,0.5]];portConstraint=eastwest;" vertex="1" parent="197">
                    <mxGeometry y="30" width="170" height="30" as="geometry"/>
                </mxCell>
                <mxCell id="199" value="PK" style="shape=partialRectangle;html=1;whiteSpace=wrap;connectable=0;fillColor=none;top=0;left=0;bottom=0;right=0;overflow=hidden;" vertex="1" parent="198">
                    <mxGeometry width="34" height="30" as="geometry">
                        <mxRectangle width="34" height="30" as="alternateBounds"/>
                    </mxGeometry>
                </mxCell>
                <mxCell id="200" value="ID" style="shape=partialRectangle;html=1;whiteSpace=wrap;connectable=0;fillColor=none;top=0;left=0;bottom=0;right=0;overflow=hidden;" vertex="1" parent="198">
                    <mxGeometry x="34" width="136" height="30" as="geometry">
                        <mxRectangle width="136" height="30" as="alternateBounds"/>
                    </mxGeometry>
                </mxCell>
                <mxCell id="201" value="" style="shape=tableRow;horizontal=0;startSize=0;swimlaneHead=0;swimlaneBody=0;top=0;left=0;bottom=0;right=0;collapsible=0;dropTarget=0;fillColor=none;points=[[0,0.5],[1,0.5]];portConstraint=eastwest;" vertex="1" parent="197">
                    <mxGeometry y="60" width="170" height="29" as="geometry"/>
                </mxCell>
                <mxCell id="202" value="FK" style="shape=partialRectangle;html=1;whiteSpace=wrap;connectable=0;fillColor=none;top=0;left=0;bottom=0;right=0;overflow=hidden;" vertex="1" parent="201">
                    <mxGeometry width="34" height="29" as="geometry">
                        <mxRectangle width="34" height="29" as="alternateBounds"/>
                    </mxGeometry>
                </mxCell>
                <mxCell id="203" value="グループ_id" style="shape=partialRectangle;html=1;whiteSpace=wrap;connectable=0;fillColor=none;top=0;left=0;bottom=0;right=0;overflow=hidden;" vertex="1" parent="201">
                    <mxGeometry x="34" width="136" height="29" as="geometry">
                        <mxRectangle width="136" height="29" as="alternateBounds"/>
                    </mxGeometry>
                </mxCell>
                <mxCell id="204" style="shape=tableRow;horizontal=0;startSize=0;swimlaneHead=0;swimlaneBody=0;top=0;left=0;bottom=0;right=0;collapsible=0;dropTarget=0;fillColor=none;points=[[0,0.5],[1,0.5]];portConstraint=eastwest;" vertex="1" parent="197">
                    <mxGeometry y="89" width="170" height="28" as="geometry"/>
                </mxCell>
                <mxCell id="205" value="FK" style="shape=partialRectangle;html=1;whiteSpace=wrap;connectable=0;fillColor=none;top=0;left=0;bottom=0;right=0;overflow=hidden;" vertex="1" parent="204">
                    <mxGeometry width="34" height="28" as="geometry">
                        <mxRectangle width="34" height="28" as="alternateBounds"/>
                    </mxGeometry>
                </mxCell>
                <mxCell id="206" value="会員_id" style="shape=partialRectangle;html=1;whiteSpace=wrap;connectable=0;fillColor=none;top=0;left=0;bottom=0;right=0;overflow=hidden;" vertex="1" parent="204">
                    <mxGeometry x="34" width="136" height="28" as="geometry">
                        <mxRectangle width="136" height="28" as="alternateBounds"/>
                    </mxGeometry>
                </mxCell>
                <mxCell id="208" value="ダイレクトメッセージ" style="shape=table;startSize=30;container=1;collapsible=0;childLayout=tableLayout;fontStyle=1;align=center;" vertex="1" parent="1">
                    <mxGeometry x="339" y="310" width="170" height="145" as="geometry"/>
                </mxCell>
                <mxCell id="209" value="" style="shape=tableRow;horizontal=0;startSize=0;swimlaneHead=0;swimlaneBody=0;top=0;left=0;bottom=0;right=0;collapsible=0;dropTarget=0;fillColor=none;points=[[0,0.5],[1,0.5]];portConstraint=eastwest;" vertex="1" parent="208">
                    <mxGeometry y="30" width="170" height="30" as="geometry"/>
                </mxCell>
                <mxCell id="210" value="PK" style="shape=partialRectangle;html=1;whiteSpace=wrap;connectable=0;fillColor=none;top=0;left=0;bottom=0;right=0;overflow=hidden;" vertex="1" parent="209">
                    <mxGeometry width="34" height="30" as="geometry">
                        <mxRectangle width="34" height="30" as="alternateBounds"/>
                    </mxGeometry>
                </mxCell>
                <mxCell id="211" value="ID" style="shape=partialRectangle;html=1;whiteSpace=wrap;connectable=0;fillColor=none;top=0;left=0;bottom=0;right=0;overflow=hidden;" vertex="1" parent="209">
                    <mxGeometry x="34" width="136" height="30" as="geometry">
                        <mxRectangle width="136" height="30" as="alternateBounds"/>
                    </mxGeometry>
                </mxCell>
                <mxCell id="212" value="" style="shape=tableRow;horizontal=0;startSize=0;swimlaneHead=0;swimlaneBody=0;top=0;left=0;bottom=0;right=0;collapsible=0;dropTarget=0;fillColor=none;points=[[0,0.5],[1,0.5]];portConstraint=eastwest;" vertex="1" parent="208">
                    <mxGeometry y="60" width="170" height="29" as="geometry"/>
                </mxCell>
                <mxCell id="213" value="FK" style="shape=partialRectangle;html=1;whiteSpace=wrap;connectable=0;fillColor=none;top=0;left=0;bottom=0;right=0;overflow=hidden;" vertex="1" parent="212">
                    <mxGeometry width="34" height="29" as="geometry">
                        <mxRectangle width="34" height="29" as="alternateBounds"/>
                    </mxGeometry>
                </mxCell>
                <mxCell id="214" value="送信者" style="shape=partialRectangle;html=1;whiteSpace=wrap;connectable=0;fillColor=none;top=0;left=0;bottom=0;right=0;overflow=hidden;" vertex="1" parent="212">
                    <mxGeometry x="34" width="136" height="29" as="geometry">
                        <mxRectangle width="136" height="29" as="alternateBounds"/>
                    </mxGeometry>
                </mxCell>
                <mxCell id="215" style="shape=tableRow;horizontal=0;startSize=0;swimlaneHead=0;swimlaneBody=0;top=0;left=0;bottom=0;right=0;collapsible=0;dropTarget=0;fillColor=none;points=[[0,0.5],[1,0.5]];portConstraint=eastwest;" vertex="1" parent="208">
                    <mxGeometry y="89" width="170" height="28" as="geometry"/>
                </mxCell>
                <mxCell id="216" value="FK" style="shape=partialRectangle;html=1;whiteSpace=wrap;connectable=0;fillColor=none;top=0;left=0;bottom=0;right=0;overflow=hidden;" vertex="1" parent="215">
                    <mxGeometry width="34" height="28" as="geometry">
                        <mxRectangle width="34" height="28" as="alternateBounds"/>
                    </mxGeometry>
                </mxCell>
                <mxCell id="217" value="受信者" style="shape=partialRectangle;html=1;whiteSpace=wrap;connectable=0;fillColor=none;top=0;left=0;bottom=0;right=0;overflow=hidden;" vertex="1" parent="215">
                    <mxGeometry x="34" width="136" height="28" as="geometry">
                        <mxRectangle width="136" height="28" as="alternateBounds"/>
                    </mxGeometry>
                </mxCell>
                <mxCell id="218" style="shape=tableRow;horizontal=0;startSize=0;swimlaneHead=0;swimlaneBody=0;top=0;left=0;bottom=0;right=0;collapsible=0;dropTarget=0;fillColor=none;points=[[0,0.5],[1,0.5]];portConstraint=eastwest;" vertex="1" parent="208">
                    <mxGeometry y="117" width="170" height="28" as="geometry"/>
                </mxCell>
                <mxCell id="219" style="shape=partialRectangle;html=1;whiteSpace=wrap;connectable=0;fillColor=none;top=0;left=0;bottom=0;right=0;overflow=hidden;" vertex="1" parent="218">
                    <mxGeometry width="34" height="28" as="geometry">
                        <mxRectangle width="34" height="28" as="alternateBounds"/>
                    </mxGeometry>
                </mxCell>
                <mxCell id="220" value="メッセージ内容" style="shape=partialRectangle;html=1;whiteSpace=wrap;connectable=0;fillColor=none;top=0;left=0;bottom=0;right=0;overflow=hidden;" vertex="1" parent="218">
                    <mxGeometry x="34" width="136" height="28" as="geometry">
                        <mxRectangle width="136" height="28" as="alternateBounds"/>
                    </mxGeometry>
                </mxCell>
                <mxCell id="227" value="グループメッセージ" style="shape=table;startSize=30;container=1;collapsible=0;childLayout=tableLayout;fontStyle=1;align=center;" vertex="1" parent="1">
                    <mxGeometry x="339" y="500" width="170" height="145" as="geometry"/>
                </mxCell>
                <mxCell id="228" value="" style="shape=tableRow;horizontal=0;startSize=0;swimlaneHead=0;swimlaneBody=0;top=0;left=0;bottom=0;right=0;collapsible=0;dropTarget=0;fillColor=none;points=[[0,0.5],[1,0.5]];portConstraint=eastwest;" vertex="1" parent="227">
                    <mxGeometry y="30" width="170" height="30" as="geometry"/>
                </mxCell>
                <mxCell id="229" value="PK" style="shape=partialRectangle;html=1;whiteSpace=wrap;connectable=0;fillColor=none;top=0;left=0;bottom=0;right=0;overflow=hidden;" vertex="1" parent="228">
                    <mxGeometry width="34" height="30" as="geometry">
                        <mxRectangle width="34" height="30" as="alternateBounds"/>
                    </mxGeometry>
                </mxCell>
                <mxCell id="230" value="ID" style="shape=partialRectangle;html=1;whiteSpace=wrap;connectable=0;fillColor=none;top=0;left=0;bottom=0;right=0;overflow=hidden;" vertex="1" parent="228">
                    <mxGeometry x="34" width="136" height="30" as="geometry">
                        <mxRectangle width="136" height="30" as="alternateBounds"/>
                    </mxGeometry>
                </mxCell>
                <mxCell id="231" value="" style="shape=tableRow;horizontal=0;startSize=0;swimlaneHead=0;swimlaneBody=0;top=0;left=0;bottom=0;right=0;collapsible=0;dropTarget=0;fillColor=none;points=[[0,0.5],[1,0.5]];portConstraint=eastwest;" vertex="1" parent="227">
                    <mxGeometry y="60" width="170" height="29" as="geometry"/>
                </mxCell>
                <mxCell id="232" value="FK" style="shape=partialRectangle;html=1;whiteSpace=wrap;connectable=0;fillColor=none;top=0;left=0;bottom=0;right=0;overflow=hidden;" vertex="1" parent="231">
                    <mxGeometry width="34" height="29" as="geometry">
                        <mxRectangle width="34" height="29" as="alternateBounds"/>
                    </mxGeometry>
                </mxCell>
                <mxCell id="233" value="グループ_id" style="shape=partialRectangle;html=1;whiteSpace=wrap;connectable=0;fillColor=none;top=0;left=0;bottom=0;right=0;overflow=hidden;" vertex="1" parent="231">
                    <mxGeometry x="34" width="136" height="29" as="geometry">
                        <mxRectangle width="136" height="29" as="alternateBounds"/>
                    </mxGeometry>
                </mxCell>
                <mxCell id="234" style="shape=tableRow;horizontal=0;startSize=0;swimlaneHead=0;swimlaneBody=0;top=0;left=0;bottom=0;right=0;collapsible=0;dropTarget=0;fillColor=none;points=[[0,0.5],[1,0.5]];portConstraint=eastwest;" vertex="1" parent="227">
                    <mxGeometry y="89" width="170" height="28" as="geometry"/>
                </mxCell>
                <mxCell id="235" value="FK" style="shape=partialRectangle;html=1;whiteSpace=wrap;connectable=0;fillColor=none;top=0;left=0;bottom=0;right=0;overflow=hidden;" vertex="1" parent="234">
                    <mxGeometry width="34" height="28" as="geometry">
                        <mxRectangle width="34" height="28" as="alternateBounds"/>
                    </mxGeometry>
                </mxCell>
                <mxCell id="236" value="送信者" style="shape=partialRectangle;html=1;whiteSpace=wrap;connectable=0;fillColor=none;top=0;left=0;bottom=0;right=0;overflow=hidden;" vertex="1" parent="234">
                    <mxGeometry x="34" width="136" height="28" as="geometry">
                        <mxRectangle width="136" height="28" as="alternateBounds"/>
                    </mxGeometry>
                </mxCell>
                <mxCell id="237" style="shape=tableRow;horizontal=0;startSize=0;swimlaneHead=0;swimlaneBody=0;top=0;left=0;bottom=0;right=0;collapsible=0;dropTarget=0;fillColor=none;points=[[0,0.5],[1,0.5]];portConstraint=eastwest;" vertex="1" parent="227">
                    <mxGeometry y="117" width="170" height="28" as="geometry"/>
                </mxCell>
                <mxCell id="238" style="shape=partialRectangle;html=1;whiteSpace=wrap;connectable=0;fillColor=none;top=0;left=0;bottom=0;right=0;overflow=hidden;" vertex="1" parent="237">
                    <mxGeometry width="34" height="28" as="geometry">
                        <mxRectangle width="34" height="28" as="alternateBounds"/>
                    </mxGeometry>
                </mxCell>
                <mxCell id="239" value="メッセージ内容" style="shape=partialRectangle;html=1;whiteSpace=wrap;connectable=0;fillColor=none;top=0;left=0;bottom=0;right=0;overflow=hidden;" vertex="1" parent="237">
                    <mxGeometry x="34" width="136" height="28" as="geometry">
                        <mxRectangle width="136" height="28" as="alternateBounds"/>
                    </mxGeometry>
                </mxCell>
            </root>
        </mxGraphModel>
    </diagram>
</mxfile>
